<mxfile host="app.diagrams.net" modified="2024-03-25T12:32:02.882Z" agent="Mozilla/5.0 (Windows NT 10.0; Win64; x64) AppleWebKit/537.36 (KHTML, like Gecko) Chrome/122.0.0.0 Safari/537.36" etag="RcAHAFEs3Ri1siDTrSV9" version="24.1.0" type="device">
  <diagram name="PÃ¡gina-1" id="5at_vAH-UQql52fOafEU">
    <mxGraphModel dx="1195" dy="643" grid="1" gridSize="10" guides="1" tooltips="1" connect="1" arrows="1" fold="1" page="1" pageScale="1" pageWidth="827" pageHeight="1169" math="0" shadow="0">
      <root>
        <mxCell id="0" />
        <mxCell id="1" parent="0" />
        <mxCell id="Bp0Vss-yfrDZO8zSrep4-1" value="USER" style="rounded=0;whiteSpace=wrap;html=1;" vertex="1" parent="1">
          <mxGeometry x="170" y="160" width="120" height="60" as="geometry" />
        </mxCell>
        <mxCell id="Bp0Vss-yfrDZO8zSrep4-2" value="ROBOT" style="rounded=0;whiteSpace=wrap;html=1;" vertex="1" parent="1">
          <mxGeometry x="540" y="160" width="120" height="60" as="geometry" />
        </mxCell>
        <mxCell id="Bp0Vss-yfrDZO8zSrep4-3" value="" style="endArrow=none;html=1;rounded=0;entryX=0.162;entryY=1.004;entryDx=0;entryDy=0;entryPerimeter=0;" edge="1" parent="1" source="Bp0Vss-yfrDZO8zSrep4-4" target="Bp0Vss-yfrDZO8zSrep4-1">
          <mxGeometry width="50" height="50" relative="1" as="geometry">
            <mxPoint x="160" y="270" as="sourcePoint" />
            <mxPoint x="210" y="220" as="targetPoint" />
          </mxGeometry>
        </mxCell>
        <mxCell id="Bp0Vss-yfrDZO8zSrep4-4" value="name" style="ellipse;whiteSpace=wrap;html=1;" vertex="1" parent="1">
          <mxGeometry x="140" y="240" width="60" height="40" as="geometry" />
        </mxCell>
        <mxCell id="Bp0Vss-yfrDZO8zSrep4-5" value="token" style="ellipse;whiteSpace=wrap;html=1;" vertex="1" parent="1">
          <mxGeometry x="260" y="80" width="60" height="40" as="geometry" />
        </mxCell>
        <mxCell id="Bp0Vss-yfrDZO8zSrep4-6" value="&lt;u&gt;id&lt;/u&gt;" style="ellipse;whiteSpace=wrap;html=1;" vertex="1" parent="1">
          <mxGeometry x="70" y="150" width="60" height="40" as="geometry" />
        </mxCell>
        <mxCell id="Bp0Vss-yfrDZO8zSrep4-8" value="password" style="ellipse;whiteSpace=wrap;html=1;" vertex="1" parent="1">
          <mxGeometry x="170" y="70" width="70" height="50" as="geometry" />
        </mxCell>
        <mxCell id="Bp0Vss-yfrDZO8zSrep4-9" value="email" style="ellipse;whiteSpace=wrap;html=1;" vertex="1" parent="1">
          <mxGeometry x="90" y="80" width="60" height="40" as="geometry" />
        </mxCell>
        <mxCell id="Bp0Vss-yfrDZO8zSrep4-10" value="" style="endArrow=none;html=1;rounded=0;exitX=0;exitY=0;exitDx=0;exitDy=0;" edge="1" parent="1" source="Bp0Vss-yfrDZO8zSrep4-1" target="Bp0Vss-yfrDZO8zSrep4-9">
          <mxGeometry width="50" height="50" relative="1" as="geometry">
            <mxPoint x="340" y="340" as="sourcePoint" />
            <mxPoint x="390" y="290" as="targetPoint" />
          </mxGeometry>
        </mxCell>
        <mxCell id="Bp0Vss-yfrDZO8zSrep4-11" value="" style="endArrow=none;html=1;rounded=0;entryX=1;entryY=0.5;entryDx=0;entryDy=0;" edge="1" parent="1" source="Bp0Vss-yfrDZO8zSrep4-1" target="Bp0Vss-yfrDZO8zSrep4-6">
          <mxGeometry width="50" height="50" relative="1" as="geometry">
            <mxPoint x="340" y="340" as="sourcePoint" />
            <mxPoint x="390" y="290" as="targetPoint" />
          </mxGeometry>
        </mxCell>
        <mxCell id="Bp0Vss-yfrDZO8zSrep4-12" value="" style="endArrow=none;html=1;rounded=0;entryX=0.5;entryY=1;entryDx=0;entryDy=0;exitX=0.5;exitY=0;exitDx=0;exitDy=0;" edge="1" parent="1" source="Bp0Vss-yfrDZO8zSrep4-1" target="Bp0Vss-yfrDZO8zSrep4-8">
          <mxGeometry width="50" height="50" relative="1" as="geometry">
            <mxPoint x="340" y="340" as="sourcePoint" />
            <mxPoint x="390" y="290" as="targetPoint" />
          </mxGeometry>
        </mxCell>
        <mxCell id="Bp0Vss-yfrDZO8zSrep4-13" value="" style="endArrow=none;html=1;rounded=0;" edge="1" parent="1" source="Bp0Vss-yfrDZO8zSrep4-5" target="Bp0Vss-yfrDZO8zSrep4-1">
          <mxGeometry width="50" height="50" relative="1" as="geometry">
            <mxPoint x="560" y="460" as="sourcePoint" />
            <mxPoint x="610" y="410" as="targetPoint" />
          </mxGeometry>
        </mxCell>
        <mxCell id="Bp0Vss-yfrDZO8zSrep4-15" value="name" style="ellipse;whiteSpace=wrap;html=1;" vertex="1" parent="1">
          <mxGeometry x="530" y="80" width="60" height="40" as="geometry" />
        </mxCell>
        <mxCell id="Bp0Vss-yfrDZO8zSrep4-16" value="time" style="ellipse;whiteSpace=wrap;html=1;" vertex="1" parent="1">
          <mxGeometry x="620" y="90" width="60" height="40" as="geometry" />
        </mxCell>
        <mxCell id="Bp0Vss-yfrDZO8zSrep4-18" value="&lt;u&gt;id&lt;/u&gt;" style="ellipse;whiteSpace=wrap;html=1;" vertex="1" parent="1">
          <mxGeometry x="440" y="100" width="60" height="40" as="geometry" />
        </mxCell>
        <mxCell id="Bp0Vss-yfrDZO8zSrep4-19" value="" style="endArrow=none;html=1;rounded=0;exitX=0;exitY=0;exitDx=0;exitDy=0;" edge="1" parent="1" source="Bp0Vss-yfrDZO8zSrep4-2" target="Bp0Vss-yfrDZO8zSrep4-18">
          <mxGeometry width="50" height="50" relative="1" as="geometry">
            <mxPoint x="170" y="188" as="sourcePoint" />
            <mxPoint x="130" y="180" as="targetPoint" />
          </mxGeometry>
        </mxCell>
        <mxCell id="Bp0Vss-yfrDZO8zSrep4-20" value="inicial time" style="ellipse;whiteSpace=wrap;html=1;" vertex="1" parent="1">
          <mxGeometry x="580" y="30" width="70" height="40" as="geometry" />
        </mxCell>
        <mxCell id="Bp0Vss-yfrDZO8zSrep4-21" value="final time" style="ellipse;whiteSpace=wrap;html=1;" vertex="1" parent="1">
          <mxGeometry x="670" y="30" width="70" height="40" as="geometry" />
        </mxCell>
        <mxCell id="Bp0Vss-yfrDZO8zSrep4-22" value="" style="endArrow=none;html=1;rounded=0;" edge="1" parent="1" source="Bp0Vss-yfrDZO8zSrep4-16" target="Bp0Vss-yfrDZO8zSrep4-20">
          <mxGeometry width="50" height="50" relative="1" as="geometry">
            <mxPoint x="400" y="290" as="sourcePoint" />
            <mxPoint x="450" y="240" as="targetPoint" />
          </mxGeometry>
        </mxCell>
        <mxCell id="Bp0Vss-yfrDZO8zSrep4-23" value="" style="endArrow=none;html=1;rounded=0;" edge="1" parent="1" source="Bp0Vss-yfrDZO8zSrep4-16" target="Bp0Vss-yfrDZO8zSrep4-21">
          <mxGeometry width="50" height="50" relative="1" as="geometry">
            <mxPoint x="649" y="101" as="sourcePoint" />
            <mxPoint x="636" y="79" as="targetPoint" />
          </mxGeometry>
        </mxCell>
        <mxCell id="Bp0Vss-yfrDZO8zSrep4-24" value="" style="endArrow=none;html=1;rounded=0;" edge="1" parent="1" source="Bp0Vss-yfrDZO8zSrep4-2" target="Bp0Vss-yfrDZO8zSrep4-16">
          <mxGeometry width="50" height="50" relative="1" as="geometry">
            <mxPoint x="400" y="290" as="sourcePoint" />
            <mxPoint x="450" y="240" as="targetPoint" />
          </mxGeometry>
        </mxCell>
        <mxCell id="Bp0Vss-yfrDZO8zSrep4-25" value="" style="endArrow=none;html=1;rounded=0;" edge="1" parent="1" source="Bp0Vss-yfrDZO8zSrep4-2" target="Bp0Vss-yfrDZO8zSrep4-15">
          <mxGeometry width="50" height="50" relative="1" as="geometry">
            <mxPoint x="400" y="290" as="sourcePoint" />
            <mxPoint x="450" y="240" as="targetPoint" />
          </mxGeometry>
        </mxCell>
        <mxCell id="Bp0Vss-yfrDZO8zSrep4-27" value="AREA" style="shape=ext;margin=3;double=1;whiteSpace=wrap;html=1;align=center;" vertex="1" parent="1">
          <mxGeometry x="540" y="380" width="120" height="60" as="geometry" />
        </mxCell>
        <mxCell id="Bp0Vss-yfrDZO8zSrep4-28" value="&lt;u&gt;id&lt;/u&gt;" style="ellipse;whiteSpace=wrap;html=1;" vertex="1" parent="1">
          <mxGeometry x="500" y="470" width="60" height="40" as="geometry" />
        </mxCell>
        <mxCell id="Bp0Vss-yfrDZO8zSrep4-29" value="" style="endArrow=none;html=1;rounded=0;exitX=1;exitY=0;exitDx=0;exitDy=0;" edge="1" parent="1" source="Bp0Vss-yfrDZO8zSrep4-28" target="Bp0Vss-yfrDZO8zSrep4-27">
          <mxGeometry width="50" height="50" relative="1" as="geometry">
            <mxPoint x="410" y="330" as="sourcePoint" />
            <mxPoint x="460" y="280" as="targetPoint" />
          </mxGeometry>
        </mxCell>
        <mxCell id="Bp0Vss-yfrDZO8zSrep4-30" value="width" style="ellipse;whiteSpace=wrap;html=1;" vertex="1" parent="1">
          <mxGeometry x="610" y="470" width="60" height="40" as="geometry" />
        </mxCell>
        <mxCell id="Bp0Vss-yfrDZO8zSrep4-31" value="height" style="ellipse;whiteSpace=wrap;html=1;" vertex="1" parent="1">
          <mxGeometry x="690" y="410" width="60" height="40" as="geometry" />
        </mxCell>
        <mxCell id="Bp0Vss-yfrDZO8zSrep4-35" value="" style="endArrow=none;html=1;rounded=0;" edge="1" parent="1" source="Bp0Vss-yfrDZO8zSrep4-30" target="Bp0Vss-yfrDZO8zSrep4-27">
          <mxGeometry width="50" height="50" relative="1" as="geometry">
            <mxPoint x="410" y="330" as="sourcePoint" />
            <mxPoint x="460" y="280" as="targetPoint" />
          </mxGeometry>
        </mxCell>
        <mxCell id="Bp0Vss-yfrDZO8zSrep4-36" value="" style="endArrow=none;html=1;rounded=0;" edge="1" parent="1" source="Bp0Vss-yfrDZO8zSrep4-31" target="Bp0Vss-yfrDZO8zSrep4-27">
          <mxGeometry width="50" height="50" relative="1" as="geometry">
            <mxPoint x="410" y="330" as="sourcePoint" />
            <mxPoint x="460" y="280" as="targetPoint" />
          </mxGeometry>
        </mxCell>
        <mxCell id="Bp0Vss-yfrDZO8zSrep4-37" value="have" style="rhombus;whiteSpace=wrap;html=1;" vertex="1" parent="1">
          <mxGeometry x="360" y="160" width="70" height="60" as="geometry" />
        </mxCell>
        <mxCell id="Bp0Vss-yfrDZO8zSrep4-39" value="have" style="shape=rhombus;double=1;perimeter=rhombusPerimeter;whiteSpace=wrap;html=1;align=center;" vertex="1" parent="1">
          <mxGeometry x="565" y="270" width="70" height="60" as="geometry" />
        </mxCell>
        <mxCell id="Bp0Vss-yfrDZO8zSrep4-40" value="" style="shape=link;html=1;rounded=0;exitX=0.5;exitY=0;exitDx=0;exitDy=0;entryX=0.5;entryY=1;entryDx=0;entryDy=0;" edge="1" parent="1" source="Bp0Vss-yfrDZO8zSrep4-27" target="Bp0Vss-yfrDZO8zSrep4-39">
          <mxGeometry relative="1" as="geometry">
            <mxPoint x="350" y="260" as="sourcePoint" />
            <mxPoint x="550" y="350" as="targetPoint" />
          </mxGeometry>
        </mxCell>
        <mxCell id="Bp0Vss-yfrDZO8zSrep4-41" value="1" style="resizable=0;html=1;whiteSpace=wrap;align=right;verticalAlign=bottom;" connectable="0" vertex="1" parent="Bp0Vss-yfrDZO8zSrep4-40">
          <mxGeometry x="1" relative="1" as="geometry">
            <mxPoint x="-3" y="15" as="offset" />
          </mxGeometry>
        </mxCell>
        <mxCell id="Bp0Vss-yfrDZO8zSrep4-42" value="" style="endArrow=none;html=1;rounded=0;exitX=0.5;exitY=1;exitDx=0;exitDy=0;entryX=0.5;entryY=0;entryDx=0;entryDy=0;" edge="1" parent="1" source="Bp0Vss-yfrDZO8zSrep4-2" target="Bp0Vss-yfrDZO8zSrep4-39">
          <mxGeometry relative="1" as="geometry">
            <mxPoint x="350" y="260" as="sourcePoint" />
            <mxPoint x="510" y="260" as="targetPoint" />
          </mxGeometry>
        </mxCell>
        <mxCell id="Bp0Vss-yfrDZO8zSrep4-43" value="1" style="resizable=0;html=1;whiteSpace=wrap;align=right;verticalAlign=bottom;" connectable="0" vertex="1" parent="Bp0Vss-yfrDZO8zSrep4-42">
          <mxGeometry x="1" relative="1" as="geometry" />
        </mxCell>
        <mxCell id="Bp0Vss-yfrDZO8zSrep4-44" value="" style="endArrow=none;html=1;rounded=0;entryX=1;entryY=0.5;entryDx=0;entryDy=0;exitX=0;exitY=0.5;exitDx=0;exitDy=0;" edge="1" parent="1" source="Bp0Vss-yfrDZO8zSrep4-2" target="Bp0Vss-yfrDZO8zSrep4-37">
          <mxGeometry relative="1" as="geometry">
            <mxPoint x="480" y="250" as="sourcePoint" />
            <mxPoint x="510" y="260" as="targetPoint" />
          </mxGeometry>
        </mxCell>
        <mxCell id="Bp0Vss-yfrDZO8zSrep4-45" value="N" style="resizable=0;html=1;whiteSpace=wrap;align=right;verticalAlign=bottom;" connectable="0" vertex="1" parent="Bp0Vss-yfrDZO8zSrep4-44">
          <mxGeometry x="1" relative="1" as="geometry">
            <mxPoint x="9" y="2" as="offset" />
          </mxGeometry>
        </mxCell>
        <mxCell id="Bp0Vss-yfrDZO8zSrep4-46" value="" style="endArrow=none;html=1;rounded=0;exitX=1;exitY=0.5;exitDx=0;exitDy=0;" edge="1" parent="1" source="Bp0Vss-yfrDZO8zSrep4-1" target="Bp0Vss-yfrDZO8zSrep4-37">
          <mxGeometry relative="1" as="geometry">
            <mxPoint x="350" y="260" as="sourcePoint" />
            <mxPoint x="510" y="260" as="targetPoint" />
          </mxGeometry>
        </mxCell>
        <mxCell id="Bp0Vss-yfrDZO8zSrep4-47" value="1" style="resizable=0;html=1;whiteSpace=wrap;align=right;verticalAlign=bottom;" connectable="0" vertex="1" parent="Bp0Vss-yfrDZO8zSrep4-46">
          <mxGeometry x="1" relative="1" as="geometry" />
        </mxCell>
      </root>
    </mxGraphModel>
  </diagram>
</mxfile>
